<svg id="svgcijj8o6" xmlns="http://www.w3.org/2000/svg" version="1.1" font-size="20px" viewBox="0 0 1474 743" width="1474px" height="743px" font-family="Lucida Console, Courier, monospace"><style>#svgcijj8o6{cursor:default;}#svgcijj8o6 text::selection{background-color:#b4d5ea;}</style><rect x="0" y="0" width="1474" height="743" fill="#f0f0f0" pointer-events="none"/><text x="40" y="70">在</text><text x="60" y="70">回</text><text x="80" y="70">答</text><text x="100" y="70">这</text><text x="120" y="70">个</text><text x="140" y="70">问</text><text x="160" y="70">题</text><text x="180" y="70">之</text><text x="200" y="70">前</text><text x="220" y="70">，</text><text x="240" y="70">我</text><text x="260" y="70">们</text><text x="280" y="70">对</text><text x="300" y="70">于</text><text x="320" y="70">饥</text><text x="340" y="70">荒</text><text x="360" y="70">、</text><text x="380" y="70">瘟</text><text x="400" y="70">疫</text><text x="420" y="70">和</text><text x="440" y="70">战</text><text x="460" y="70">争</text><text x="480" y="70">还</text><text x="500" y="70">得</text><text x="520" y="70">多</text><text x="540" y="70">谈</text><text x="560" y="70">几</text><text x="580" y="70">句</text><text x="600" y="70">。</text><text x="620" y="70">很</text><text x="640" y="70">多</text><text x="660" y="70">人</text><text x="680" y="70">可</text><text x="700" y="70">能</text><text x="720" y="70">会</text><text x="740" y="70">认</text><text x="760" y="70">为</text><text x="780" y="70">，</text><text x="800" y="70">说</text><text x="820" y="70">这</text><text x="840" y="70">些</text><text x="860" y="70">问</text><text x="880" y="70">题</text><text x="900" y="70">已</text><text x="920" y="70">经</text><text x="940" y="70">得</text><text x="960" y="70">到</text><text x="980" y="70">控</text><text x="1000" y="70">制</text><text x="1020" y="70">，</text><text x="1040" y="70">是</text><text x="1060" y="70">个</text><text x="1080" y="70">非</text><text x="1100" y="70">常</text><text x="1120" y="70">离</text><text x="1140" y="70">谱</text><text x="1160" y="70">、</text><text x="1180" y="70">天</text><text x="1200" y="70">真</text><text x="1220" y="70">甚</text><text x="1240" y="70">至</text><text x="1260" y="70">麻</text><text x="1280" y="70">木</text><text x="1300" y="70">不</text><text x="1320" y="70">仁</text><text x="1340" y="70">的</text><text x="1360" y="70">说</text><text x="1380" y="70">法</text><text x="1400" y="70">。</text><text x="40" y="100">不</text><text x="60" y="100">是</text><text x="80" y="100">还</text><text x="100" y="100">有</text><text x="120" y="100">几</text><text x="140" y="100">十</text><text x="160" y="100">亿</text><text x="180" y="100">人</text><text x="200" y="100">每</text><text x="220" y="100">天</text><text x="240" y="100">只</text><text x="260" y="100">有</text><text x="280" y="100">不</text><text x="300" y="100">到</text><text x="320" y="100">2</text><text x="332.0625" y="100">美</text><text x="352.0625" y="100">元</text><text x="372.0625" y="100">过</text><text x="392.0625" y="100">日</text><text x="412.0625" y="100">子</text><text x="432.0625" y="100">吗</text><text x="452.0625" y="100">？</text><text x="472.0625" y="100">非</text><text x="492.0625" y="100">洲</text><text x="512.0625" y="100">不</text><text x="532.0625" y="100">是</text><text x="552.0625" y="100">还</text><text x="572.0625" y="100">在</text><text x="592.0625" y="100">和</text><text x="612.0625" y="100">艾</text><text x="632.0625" y="100">滋</text><text x="652.0625" y="100">病</text><text x="672.0625" y="100">抗</text><text x="692.0625" y="100">争</text><text x="712.0625" y="100">吗</text><text x="732.0625" y="100">？</text><text x="752.0625" y="100">叙</text><text x="772.0625" y="100">利</text><text x="792.0625" y="100">亚</text><text x="812.0625" y="100">和</text><text x="832.0625" y="100">伊</text><text x="852.0625" y="100">拉</text><text x="872.0625" y="100">克</text><text x="892.0625" y="100">不</text><text x="912.0625" y="100">也</text><text x="932.0625" y="100">正</text><text x="952.0625" y="100">有</text><text x="972.0625" y="100">战</text><text x="992.0625" y="100">争</text><text x="1012.0625" y="100">肆</text><text x="1032.0625" y="100">虐</text><text x="1052.0625" y="100">吗</text><text x="1072.0625" y="100">？</text><text x="1092.0625" y="100">要</text><text x="1112.0625" y="100">回</text><text x="1132.0625" y="100">答</text><text x="1152.0625" y="100">这</text><text x="1172.0625" y="100">些</text><text x="1192.0625" y="100">问</text><text x="1212.0625" y="100">题</text><text x="1232.0625" y="100">，</text><text x="1252.0625" y="100">我</text><text x="1272.0625" y="100">们</text><text x="1292.0625" y="100">得</text><text x="1312.0625" y="100">先</text><text x="1332.0625" y="100">更</text><text x="1352.0625" y="100">仔</text><text x="1372.0625" y="100">细</text><text x="1392.0625" y="100">地</text><text x="1412.0625" y="100">看</text><text x="40" y="130">看</text><text x="60" y="130">2</text><text x="72.0625" y="130">1</text><text x="84.125" y="130">世</text><text x="104.125" y="130">纪</text><text x="124.125" y="130">早</text><text x="144.125" y="130">期</text><text x="164.125" y="130">的</text><text x="184.125" y="130">世</text><text x="204.125" y="130">界</text><text x="224.125" y="130">；</text><text x="244.125" y="130">至</text><text x="264.125" y="130">于</text><text x="284.125" y="130">探</text><text x="304.125" y="130">索</text><text x="324.125" y="130">未</text><text x="344.125" y="130">来</text><text x="364.125" y="130">几</text><text x="384.125" y="130">十</text><text x="404.125" y="130">年</text><text x="424.125" y="130">的</text><text x="444.125" y="130">议</text><text x="464.125" y="130">题</text><text x="484.125" y="130">，</text><text x="504.125" y="130">且</text><text x="524.125" y="130">待</text><text x="544.125" y="130">后</text><text x="564.125" y="130">续</text><text x="584.125" y="130">再</text><text x="604.125" y="130">谈</text><text x="624.125" y="130">。</text><text x="40" y="165.1" style="font-weight:bold;font-size:23.4px;">生</text><text x="63.8594" y="165.1" style="font-weight:bold;font-size:23.4px;">物</text><text x="87.7188" y="165.1" style="font-weight:bold;font-size:23.4px;">贫</text><text x="111.57820000000001" y="165.1" style="font-weight:bold;font-size:23.4px;">穷</text><text x="135.4376" y="165.1" style="font-weight:bold;font-size:23.4px;">线</text><text x="40" y="195.1">首</text><text x="60" y="195.1">先</text><text x="80" y="195.1">谈</text><text x="100" y="195.1">谈</text><text x="120" y="195.1">饥</text><text x="140" y="195.1">荒</text><text x="160" y="195.1">，</text><text x="180" y="195.1">几</text><text x="200" y="195.1">千</text><text x="220" y="195.1">年</text><text x="240" y="195.1">来</text><text x="260" y="195.1">这</text><text x="280" y="195.1">一</text><text x="300" y="195.1">直</text><text x="320" y="195.1">是</text><text x="340" y="195.1">人</text><text x="360" y="195.1">类</text><text x="380" y="195.1">最</text><text x="400" y="195.1">大</text><text x="420" y="195.1">的</text><text x="440" y="195.1">敌</text><text x="460" y="195.1">人</text><text x="480" y="195.1">。</text><text x="500" y="195.1">甚</text><text x="520" y="195.1">至</text><text x="540" y="195.1">在</text><text x="560" y="195.1">不</text><text x="580" y="195.1">久</text><text x="600" y="195.1">前</text><text x="620" y="195.1">，</text><text x="640" y="195.1">大</text><text x="660" y="195.1">多</text><text x="680" y="195.1">数</text><text x="700" y="195.1">人</text><text x="720" y="195.1">类</text><text x="740" y="195.1">仍</text><text x="760" y="195.1">然</text><text x="780" y="195.1">生</text><text x="800" y="195.1">活</text><text x="820" y="195.1">在</text><text x="840" y="195.1">生</text><text x="860" y="195.1">物</text><text x="880" y="195.1">贫</text><text x="900" y="195.1">穷</text><text x="920" y="195.1">线</text><text x="940" y="195.1">的</text><text x="960" y="195.1">边</text><text x="980" y="195.1">缘</text><text x="1000" y="195.1">，</text><text x="1020" y="195.1">再</text><text x="1040" y="195.1">低</text><text x="1060" y="195.1">一</text><text x="1080" y="195.1">点</text><text x="1100" y="195.1">就</text><text x="1120" y="195.1">会</text><text x="1140" y="195.1">落</text><text x="1160" y="195.1">入</text><text x="1180" y="195.1">营</text><text x="1200" y="195.1">养</text><text x="1220" y="195.1">不</text><text x="1240" y="195.1">良</text><text x="1260" y="195.1">和</text><text x="1280" y="195.1">饥</text><text x="1300" y="195.1">饿</text><text x="1320" y="195.1">的</text><text x="1340" y="195.1">状</text><text x="1360" y="195.1">态</text><text x="1380" y="195.1">。</text><text x="1400" y="195.1">只</text><text x="40" y="225.1">要</text><text x="60" y="225.1">发</text><text x="80" y="225.1">生</text><text x="100" y="225.1">小</text><text x="120" y="225.1">失</text><text x="140" y="225.1">误</text><text x="160" y="225.1">，</text><text x="180" y="225.1">或</text><text x="200" y="225.1">是</text><text x="220" y="225.1">单</text><text x="240" y="225.1">纯</text><text x="260" y="225.1">有</text><text x="280" y="225.1">些</text><text x="300" y="225.1">运</text><text x="320" y="225.1">气</text><text x="340" y="225.1">不</text><text x="360" y="225.1">好</text><text x="380" y="225.1">，</text><text x="400" y="225.1">就</text><text x="420" y="225.1">很</text><text x="440" y="225.1">有</text><text x="460" y="225.1">可</text><text x="480" y="225.1">能</text><text x="500" y="225.1">把</text><text x="520" y="225.1">整</text><text x="540" y="225.1">个</text><text x="560" y="225.1">家</text><text x="580" y="225.1">庭</text><text x="600" y="225.1">或</text><text x="620" y="225.1">村</text><text x="640" y="225.1">庄</text><text x="660" y="225.1">判</text><text x="680" y="225.1">了</text><text x="700" y="225.1">死</text><text x="720" y="225.1">刑</text><text x="740" y="225.1">。</text><text x="760" y="225.1">如</text><text x="780" y="225.1">果</text><text x="800" y="225.1">一</text><text x="820" y="225.1">场</text><text x="840" y="225.1">大</text><text x="860" y="225.1">雨</text><text x="880" y="225.1">毁</text><text x="900" y="225.1">了</text><text x="920" y="225.1">你</text><text x="940" y="225.1">的</text><text x="960" y="225.1">麦</text><text x="980" y="225.1">田</text><text x="1000" y="225.1">，</text><text x="1020" y="225.1">或</text><text x="1040" y="225.1">是</text><text x="1060" y="225.1">强</text><text x="1080" y="225.1">盗</text><text x="1100" y="225.1">抢</text><text x="1120" y="225.1">走</text><text x="1140" y="225.1">了</text><text x="1160" y="225.1">你</text><text x="1180" y="225.1">养</text><text x="1200" y="225.1">的</text><text x="1220" y="225.1">羊</text><text x="1240" y="225.1">群</text><text x="1260" y="225.1">，</text><text x="1280" y="225.1">你</text><text x="1300" y="225.1">和</text><text x="1320" y="225.1">亲</text><text x="1340" y="225.1">人</text><text x="1360" y="225.1">可</text><text x="1380" y="225.1">能</text><text x="1400" y="225.1">就</text><text x="40" y="255.1">会</text><text x="60" y="255.1">饿</text><text x="80" y="255.1">死</text><text x="100" y="255.1">。</text><text x="120" y="255.1">如</text><text x="140" y="255.1">果</text><text x="160" y="255.1">是</text><text x="180" y="255.1">整</text><text x="200" y="255.1">体</text><text x="220" y="255.1">的</text><text x="240" y="255.1">不</text><text x="260" y="255.1">幸</text><text x="280" y="255.1">或</text><text x="300" y="255.1">愚</text><text x="320" y="255.1">蠢</text><text x="340" y="255.1">行</text><text x="360" y="255.1">径</text><text x="380" y="255.1">，</text><text x="400" y="255.1">则</text><text x="420" y="255.1">会</text><text x="440" y="255.1">导</text><text x="460" y="255.1">致</text><text x="480" y="255.1">大</text><text x="500" y="255.1">规</text><text x="520" y="255.1">模</text><text x="540" y="255.1">的</text><text x="560" y="255.1">饥</text><text x="580" y="255.1">荒</text><text x="600" y="255.1">。</text><text x="620" y="255.1">在</text><text x="640" y="255.1">古</text><text x="660" y="255.1">埃</text><text x="680" y="255.1">及</text><text x="700" y="255.1">或</text><text x="720" y="255.1">中</text><text x="740" y="255.1">世</text><text x="760" y="255.1">纪</text><text x="780" y="255.1">印</text><text x="800" y="255.1">度</text><text x="820" y="255.1">，</text><text x="840" y="255.1">如</text><text x="860" y="255.1">果</text><text x="880" y="255.1">碰</text><text x="900" y="255.1">到</text><text x="920" y="255.1">严</text><text x="940" y="255.1">重</text><text x="960" y="255.1">干</text><text x="980" y="255.1">旱</text><text x="1000" y="255.1">（</text><text x="1020" y="255.1">这</text><text x="1040" y="255.1">种</text><text x="1060" y="255.1">情</text><text x="1080" y="255.1">况</text><text x="1100" y="255.1">并</text><text x="1120" y="255.1">不</text><text x="1140" y="255.1">少</text><text x="1160" y="255.1">见</text><text x="1180" y="255.1">）</text><text x="1200" y="255.1">，</text><text x="1220" y="255.1">常</text><text x="1240" y="255.1">常</text><text x="1260" y="255.1">一</text><text x="1280" y="255.1">下</text><text x="1300" y="255.1">子</text><text x="1320" y="255.1">就</text><text x="1340" y="255.1">会</text><text x="1360" y="255.1">有</text><text x="1380" y="255.1">5</text><text x="1392.0625" y="255.1">%</text><text x="1404.125" y="255.1">或</text><text x="40" y="285.1">1</text><text x="52.0625" y="285.1">0</text><text x="64.125" y="285.1">%</text><text x="76.1875" y="285.1">的</text><text x="96.1875" y="285.1">人</text><text x="116.1875" y="285.1">死</text><text x="136.1875" y="285.1">去</text><text x="156.1875" y="285.1">。</text><text x="176.1875" y="285.1">遇</text><text x="196.1875" y="285.1">上</text><text x="216.1875" y="285.1">干</text><text x="236.1875" y="285.1">旱</text><text x="256.1875" y="285.1">，</text><text x="276.1875" y="285.1">就</text><text x="296.1875" y="285.1">会</text><text x="316.1875" y="285.1">出</text><text x="336.1875" y="285.1">现</text><text x="356.1875" y="285.1">粮</text><text x="376.1875" y="285.1">食</text><text x="396.1875" y="285.1">短</text><text x="416.1875" y="285.1">缺</text><text x="436.1875" y="285.1">；</text><text x="456.1875" y="285.1">运</text><text x="476.1875" y="285.1">输</text><text x="496.1875" y="285.1">又</text><text x="516.1875" y="285.1">太</text><text x="536.1875" y="285.1">过</text><text x="556.1875" y="285.1">缓</text><text x="576.1875" y="285.1">慢</text><text x="596.1875" y="285.1">，</text><text x="616.1875" y="285.1">成</text><text x="636.1875" y="285.1">本</text><text x="656.1875" y="285.1">也</text><text x="676.1875" y="285.1">太</text><text x="696.1875" y="285.1">高</text><text x="716.1875" y="285.1">，</text><text x="736.1875" y="285.1">无</text><text x="756.1875" y="285.1">法</text><text x="776.1875" y="285.1">进</text><text x="796.1875" y="285.1">口</text><text x="816.1875" y="285.1">足</text><text x="836.1875" y="285.1">够</text><text x="856.1875" y="285.1">的</text><text x="876.1875" y="285.1">食</text><text x="896.1875" y="285.1">物</text><text x="916.1875" y="285.1">；</text><text x="936.1875" y="285.1">而</text><text x="956.1875" y="285.1">且</text><text x="976.1875" y="285.1">政</text><text x="996.1875" y="285.1">府</text><text x="1016.1875" y="285.1">也</text><text x="1036.1875" y="285.1">，</text><text x="1056.1875" y="285.1">无</text><text x="1076.1875" y="285.1">力</text><text x="1096.1875" y="285.1">挽</text><text x="1116.1875" y="285.1">救</text><text x="1136.1875" y="285.1">局</text><text x="1156.1875" y="285.1">面</text><text x="1176.1875" y="285.1">。</text><text x="40" y="315.1">随</text><text x="60" y="315.1">便</text><text x="80" y="315.1">翻</text><text x="100" y="315.1">开</text><text x="120" y="315.1">哪</text><text x="140" y="315.1">本</text><text x="160" y="315.1">历</text><text x="180" y="315.1">史</text><text x="200" y="315.1">书</text><text x="220" y="315.1">，</text><text x="240" y="315.1">几</text><text x="260" y="315.1">乎</text><text x="280" y="315.1">都</text><text x="300" y="315.1">会</text><text x="320" y="315.1">读</text><text x="340" y="315.1">到</text><text x="360" y="315.1">饥</text><text x="380" y="315.1">荒</text><text x="400" y="315.1">的</text><text x="420" y="315.1">惨</text><text x="440" y="315.1">状</text><text x="460" y="315.1">，</text><text x="480" y="315.1">读</text><text x="500" y="315.1">到</text><text x="520" y="315.1">人</text><text x="540" y="315.1">在</text><text x="560" y="315.1">饥</text><text x="580" y="315.1">饿</text><text x="600" y="315.1">之</text><text x="620" y="315.1">下</text><text x="640" y="315.1">做</text><text x="660" y="315.1">出</text><text x="680" y="315.1">的</text><text x="700" y="315.1">疯</text><text x="720" y="315.1">狂</text><text x="740" y="315.1">行</text><text x="760" y="315.1">径</text><text x="780" y="315.1">。</text><text x="800" y="315.1">1</text><text x="812.0625" y="315.1">6</text><text x="824.125" y="315.1">9</text><text x="836.1875" y="315.1">4</text><text x="848.25" y="315.1">年</text><text x="868.25" y="315.1">4</text><text x="880.3125" y="315.1">月</text><text x="900.3125" y="315.1">，</text><text x="920.3125" y="315.1">法</text><text x="940.3125" y="315.1">国</text><text x="960.3125" y="315.1">博</text><text x="980.3125" y="315.1">韦</text><text x="1000.3125" y="315.1">（</text><text x="1020.3125" y="315.1">B</text><text x="1032.375" y="315.1">e</text><text x="1044.4375" y="315.1">a</text><text x="1056.5" y="315.1">u</text><text x="1068.5625" y="315.1">v</text><text x="1080.625" y="315.1">a</text><text x="1092.6875" y="315.1">i</text><text x="1104.75" y="315.1">s</text><text x="1116.8125" y="315.1">）</text><text x="1136.8125" y="315.1">某</text><text x="1156.8125" y="315.1">地</text><text x="1176.8125" y="315.1">的</text><text x="1196.8125" y="315.1">官</text><text x="1216.8125" y="315.1">员</text><text x="1236.8125" y="315.1">描</text><text x="1256.8125" y="315.1">述</text><text x="1276.8125" y="315.1">了</text><text x="1296.8125" y="315.1">当</text><text x="1316.8125" y="315.1">地</text><text x="1336.8125" y="315.1">饥</text><text x="1356.8125" y="315.1">荒</text><text x="1376.8125" y="315.1">、</text><text x="1396.8125" y="315.1">粮</text><text x="40" y="345.1">价</text><text x="60" y="345.1">飙</text><text x="80" y="345.1">涨</text><text x="100" y="345.1">的</text><text x="120" y="345.1">影</text><text x="140" y="345.1">响</text><text x="160" y="345.1">，</text><text x="180" y="345.1">他</text><text x="200" y="345.1">说</text><text x="220" y="345.1">自</text><text x="240" y="345.1">己</text><text x="260" y="345.1">的</text><text x="280" y="345.1">辖</text><text x="300" y="345.1">地</text><text x="320" y="345.1">处</text><text x="340" y="345.1">处</text><text x="360" y="345.1">都</text><text x="380" y="345.1">是</text><text x="400" y="345.1">“</text><text x="412.0625" y="345.1">无</text><text x="432.0625" y="345.1">数</text><text x="452.0625" y="345.1">可</text><text x="472.0625" y="345.1">怜</text><text x="492.0625" y="345.1">的</text><text x="512.0625" y="345.1">灵</text><text x="532.0625" y="345.1">魂</text><text x="552.0625" y="345.1">饥</text><text x="572.0625" y="345.1">饿</text><text x="592.0625" y="345.1">身</text><text x="612.0625" y="345.1">亡</text><text x="632.0625" y="345.1">；</text><text x="652.0625" y="345.1">没</text><text x="672.0625" y="345.1">有</text><text x="692.0625" y="345.1">工</text><text x="712.0625" y="345.1">作</text><text x="732.0625" y="345.1">，</text><text x="752.0625" y="345.1">也</text><text x="772.0625" y="345.1">就</text><text x="792.0625" y="345.1">没</text><text x="812.0625" y="345.1">有</text><text x="832.0625" y="345.1">钱</text><text x="852.0625" y="345.1">买</text><text x="872.0625" y="345.1">面</text><text x="892.0625" y="345.1">包</text><text x="912.0625" y="345.1">果</text><text x="932.0625" y="345.1">腹</text><text x="952.0625" y="345.1">。</text><text x="972.0625" y="345.1">为</text><text x="992.0625" y="345.1">求</text><text x="1012.0625" y="345.1">苟</text><text x="1032.0625" y="345.1">延</text><text x="1052.0625" y="345.1">残</text><text x="1072.0625" y="345.1">喘</text><text x="1092.0625" y="345.1">、</text><text x="1112.0625" y="345.1">稍</text><text x="1132.0625" y="345.1">解</text><text x="1152.0625" y="345.1">饥</text><text x="1172.0625" y="345.1">饿</text><text x="1192.0625" y="345.1">，</text><text x="1212.0625" y="345.1">这</text><text x="1232.0625" y="345.1">些</text><text x="1252.0625" y="345.1">可</text><text x="1272.0625" y="345.1">怜</text><text x="1292.0625" y="345.1">的</text><text x="1312.0625" y="345.1">人</text><text x="1332.0625" y="345.1">以</text><text x="1352.0625" y="345.1">不</text><text x="1372.0625" y="345.1">洁</text><text x="1392.0625" y="345.1">之</text><text x="1412.0625" y="345.1">物</text><text x="40" y="375.1">为</text><text x="60" y="375.1">食</text><text x="80" y="375.1">，</text><text x="100" y="375.1">如</text><text x="120" y="375.1">死</text><text x="140" y="375.1">猫</text><text x="160" y="375.1">或</text><text x="180" y="375.1">已</text><text x="200" y="375.1">剥</text><text x="220" y="375.1">皮</text><text x="240" y="375.1">而</text><text x="260" y="375.1">投</text><text x="280" y="375.1">入</text><text x="300" y="375.1">粪</text><text x="320" y="375.1">堆</text><text x="340" y="375.1">的</text><text x="360" y="375.1">死</text><text x="380" y="375.1">马</text><text x="400" y="375.1">。</text><text x="420" y="375.1">（</text><text x="440" y="375.1">还</text><text x="460" y="375.1">有</text><text x="480" y="375.1">人</text><text x="500" y="375.1">吃</text><text x="520" y="375.1">）</text><text x="540" y="375.1">宰</text><text x="560" y="375.1">杀</text><text x="580" y="375.1">牛</text><text x="600" y="375.1">流</text><text x="620" y="375.1">出</text><text x="640" y="375.1">的</text><text x="660" y="375.1">血</text><text x="680" y="375.1">，</text><text x="700" y="375.1">以</text><text x="720" y="375.1">及</text><text x="740" y="375.1">厨</text><text x="760" y="375.1">子</text><text x="780" y="375.1">扔</text><text x="800" y="375.1">到</text><text x="820" y="375.1">街</text><text x="840" y="375.1">上</text><text x="860" y="375.1">的</text><text x="880" y="375.1">动</text><text x="900" y="375.1">物</text><text x="920" y="375.1">内</text><text x="940" y="375.1">脏</text><text x="960" y="375.1">。</text><text x="980" y="375.1">其</text><text x="1000" y="375.1">他</text><text x="1020" y="375.1">可</text><text x="1040" y="375.1">怜</text><text x="1060" y="375.1">人</text><text x="1080" y="375.1">则</text><text x="1100" y="375.1">吃</text><text x="1120" y="375.1">水</text><text x="1140" y="375.1">煮</text><text x="1160" y="375.1">的</text><text x="1180" y="375.1">荨</text><text x="1200" y="375.1">麻</text><text x="1220" y="375.1">、</text><text x="1240" y="375.1">杂</text><text x="1260" y="375.1">草</text><text x="1280" y="375.1">、</text><text x="1300" y="375.1">树</text><text x="1320" y="375.1">根</text><text x="1340" y="375.1">、</text><text x="1360" y="375.1">药</text><text x="1380" y="375.1">草</text><text x="1400" y="375.1">。</text><text x="1420" y="375.1">”</text><text x="40" y="405.1">1</text><text x="40" y="435.1">法</text><text x="60" y="435.1">国</text><text x="80" y="435.1">各</text><text x="100" y="435.1">地</text><text x="120" y="435.1">都</text><text x="140" y="435.1">出</text><text x="160" y="435.1">现</text><text x="180" y="435.1">了</text><text x="200" y="435.1">类</text><text x="220" y="435.1">似</text><text x="240" y="435.1">的</text><text x="260" y="435.1">景</text><text x="280" y="435.1">象</text><text x="300" y="435.1">。</text><text x="320" y="435.1">由</text><text x="340" y="435.1">于</text><text x="360" y="435.1">前</text><text x="380" y="435.1">两</text><text x="400" y="435.1">年</text><text x="420" y="435.1">年</text><text x="440" y="435.1">景</text><text x="460" y="435.1">不</text><text x="480" y="435.1">佳</text><text x="500" y="435.1">，</text><text x="520" y="435.1">整</text><text x="540" y="435.1">个</text><text x="560" y="435.1">王</text><text x="580" y="435.1">国</text><text x="600" y="435.1">严</text><text x="620" y="435.1">重</text><text x="640" y="435.1">歉</text><text x="660" y="435.1">收</text><text x="680" y="435.1">，</text><text x="700" y="435.1">到</text><text x="720" y="435.1">了</text><text x="740" y="435.1">1</text><text x="752.0625" y="435.1">6</text><text x="764.125" y="435.1">9</text><text x="776.1875" y="435.1">4</text><text x="788.25" y="435.1">年</text><text x="808.25" y="435.1">春</text><text x="828.25" y="435.1">天</text><text x="848.25" y="435.1">，</text><text x="868.25" y="435.1">粮</text><text x="888.25" y="435.1">仓</text><text x="908.25" y="435.1">已</text><text x="928.25" y="435.1">经</text><text x="948.25" y="435.1">完</text><text x="968.25" y="435.1">全</text><text x="988.25" y="435.1">见</text><text x="1008.25" y="435.1">底</text><text x="1028.25" y="435.1">。</text><text x="1048.25" y="435.1">有</text><text x="1068.25" y="435.1">钱</text><text x="1088.25" y="435.1">人</text><text x="1108.25" y="435.1">设</text><text x="1128.25" y="435.1">法</text><text x="1148.25" y="435.1">囤</text><text x="1168.25" y="435.1">积</text><text x="1188.25" y="435.1">粮</text><text x="1208.25" y="435.1">食</text><text x="1228.25" y="435.1">，</text><text x="1248.25" y="435.1">以</text><text x="1268.25" y="435.1">天</text><text x="1288.25" y="435.1">价</text><text x="1308.25" y="435.1">出</text><text x="1328.25" y="435.1">售</text><text x="1348.25" y="435.1">，</text><text x="1368.25" y="435.1">而</text><text x="1388.25" y="435.1">穷</text><text x="1408.25" y="435.1">人</text><text x="40" y="465.1">则</text><text x="60" y="465.1">是</text><text x="80" y="465.1">大</text><text x="100" y="465.1">批</text><text x="120" y="465.1">饿</text><text x="140" y="465.1">死</text><text x="160" y="465.1">。</text><text x="180" y="465.1">1</text><text x="192.0625" y="465.1">6</text><text x="204.125" y="465.1">9</text><text x="216.1875" y="465.1">2</text><text x="228.25" y="465.1">—</text><text x="240.3125" y="465.1">—</text><text x="252.375" y="465.1">1</text><text x="264.4375" y="465.1">6</text><text x="276.5" y="465.1">9</text><text x="288.5625" y="465.1">4</text><text x="300.625" y="465.1">年</text><text x="320.625" y="465.1">，</text><text x="340.625" y="465.1">法</text><text x="360.625" y="465.1">国</text><text x="380.625" y="465.1">约</text><text x="400.625" y="465.1">有</text><text x="420.625" y="465.1">2</text><text x="432.6875" y="465.1">8</text><text x="444.75" y="465.1">0</text><text x="456.8125" y="465.1">万</text><text x="476.8125" y="465.1">人</text><text x="496.8125" y="465.1">饿</text><text x="516.8125" y="465.1">死</text><text x="536.8125" y="465.1">，</text><text x="556.8125" y="465.1">约</text><text x="576.8125" y="465.1">占</text><text x="596.8125" y="465.1">总</text><text x="616.8125" y="465.1">人</text><text x="636.8125" y="465.1">口</text><text x="656.8125" y="465.1">的</text><text x="676.8125" y="465.1">1</text><text x="688.875" y="465.1">5</text><text x="700.9375" y="465.1">%</text><text x="713" y="465.1">；</text><text x="733" y="465.1">而</text><text x="753" y="465.1">与</text><text x="773" y="465.1">此</text><text x="793" y="465.1">同</text><text x="813" y="465.1">时</text><text x="833" y="465.1">，</text><text x="853" y="465.1">太</text><text x="873" y="465.1">阳</text><text x="893" y="465.1">王</text><text x="913" y="465.1">路</text><text x="933" y="465.1">易</text><text x="953" y="465.1">十</text><text x="973" y="465.1">四</text><text x="993" y="465.1">仍</text><text x="1013" y="465.1">在</text><text x="1033" y="465.1">凡</text><text x="1053" y="465.1">尔</text><text x="1073" y="465.1">赛</text><text x="1093" y="465.1">宫</text><text x="1113" y="465.1">荒</text><text x="1133" y="465.1">淫</text><text x="1153" y="465.1">无</text><text x="1173" y="465.1">度</text><text x="1193" y="465.1">。</text><text x="1213" y="465.1">第</text><text x="1233" y="465.1">二</text><text x="1253" y="465.1">年</text><text x="1273" y="465.1">（</text><text x="1293" y="465.1">1</text><text x="1305.0625" y="465.1">6</text><text x="1317.125" y="465.1">9</text><text x="1329.1875" y="465.1">5</text><text x="1341.25" y="465.1">年</text><text x="1361.25" y="465.1">）</text><text x="1381.25" y="465.1">，</text><text x="1401.25" y="465.1">饥</text><text x="40" y="495.1">荒</text><text x="60" y="495.1">袭</text><text x="80" y="495.1">击</text><text x="100" y="495.1">爱</text><text x="120" y="495.1">沙</text><text x="140" y="495.1">尼</text><text x="160" y="495.1">亚</text><text x="180" y="495.1">，</text><text x="200" y="495.1">导</text><text x="220" y="495.1">致</text><text x="240" y="495.1">该</text><text x="260" y="495.1">国</text><text x="280" y="495.1">人</text><text x="300" y="495.1">口</text><text x="320" y="495.1">损</text><text x="340" y="495.1">失</text><text x="360" y="495.1">达</text><text x="380" y="495.1">五</text><text x="400" y="495.1">分</text><text x="420" y="495.1">之</text><text x="440" y="495.1">一</text><text x="460" y="495.1">。</text><text x="480" y="495.1">1</text><text x="492.0625" y="495.1">6</text><text x="504.125" y="495.1">9</text><text x="516.1875" y="495.1">6</text><text x="528.25" y="495.1">年</text><text x="548.25" y="495.1">则</text><text x="568.25" y="495.1">是</text><text x="588.25" y="495.1">在</text><text x="608.25" y="495.1">芬</text><text x="628.25" y="495.1">兰</text><text x="648.25" y="495.1">肆</text><text x="668.25" y="495.1">虐</text><text x="688.25" y="495.1">，</text><text x="708.25" y="495.1">饿</text><text x="728.25" y="495.1">死</text><text x="748.25" y="495.1">了</text><text x="768.25" y="495.1">四</text><text x="788.25" y="495.1">分</text><text x="808.25" y="495.1">之</text><text x="828.25" y="495.1">一</text><text x="848.25" y="495.1">到</text><text x="868.25" y="495.1">三</text><text x="888.25" y="495.1">分</text><text x="908.25" y="495.1">之</text><text x="928.25" y="495.1">一</text><text x="948.25" y="495.1">的</text><text x="968.25" y="495.1">人</text><text x="988.25" y="495.1">口</text><text x="1008.25" y="495.1">。</text><text x="1028.25" y="495.1">1</text><text x="1040.3125" y="495.1">6</text><text x="1052.375" y="495.1">9</text><text x="1064.4375" y="495.1">5</text><text x="1076.5" y="495.1">—</text><text x="1088.5625" y="495.1">—</text><text x="1100.625" y="495.1">1</text><text x="1112.6875" y="495.1">6</text><text x="1124.75" y="495.1">9</text><text x="1136.8125" y="495.1">8</text><text x="1148.875" y="495.1">年</text><text x="1168.875" y="495.1">，</text><text x="1188.875" y="495.1">苏</text><text x="1208.875" y="495.1">格</text><text x="1228.875" y="495.1">兰</text><text x="1248.875" y="495.1">也</text><text x="1268.875" y="495.1">遭</text><text x="1288.875" y="495.1">受</text><text x="1308.875" y="495.1">严</text><text x="1328.875" y="495.1">重</text><text x="1348.875" y="495.1">饥</text><text x="1368.875" y="495.1">荒</text><text x="1388.875" y="495.1">，</text><text x="1408.875" y="495.1">部</text><text x="40" y="525.1">分</text><text x="60" y="525.1">地</text><text x="80" y="525.1">区</text><text x="100" y="525.1">饿</text><text x="120" y="525.1">死</text><text x="140" y="525.1">了</text><text x="160" y="525.1">高</text><text x="180" y="525.1">达</text><text x="200" y="525.1">2</text><text x="212.0625" y="525.1">0</text><text x="224.125" y="525.1">%</text><text x="236.1875" y="525.1">的</text><text x="256.1875" y="525.1">居</text><text x="276.1875" y="525.1">民</text><text x="296.1875" y="525.1">。</text><text x="316.1875" y="525.1">&#xA0;</text><text x="328.25" y="525.1">2</text><text x="40" y="555.1">多</text><text x="60" y="555.1">数</text><text x="80" y="555.1">读</text><text x="100" y="555.1">者</text><text x="120" y="555.1">可</text><text x="140" y="555.1">能</text><text x="160" y="555.1">都</text><text x="180" y="555.1">知</text><text x="200" y="555.1">道</text><text x="220" y="555.1">少</text><text x="240" y="555.1">吃</text><text x="260" y="555.1">一</text><text x="280" y="555.1">顿</text><text x="300" y="555.1">午</text><text x="320" y="555.1">餐</text><text x="340" y="555.1">是</text><text x="360" y="555.1">什</text><text x="380" y="555.1">么</text><text x="400" y="555.1">感</text><text x="420" y="555.1">觉</text><text x="440" y="555.1">，</text><text x="460" y="555.1">这</text><text x="480" y="555.1">可</text><text x="500" y="555.1">能</text><text x="520" y="555.1">是</text><text x="540" y="555.1">出</text><text x="560" y="555.1">于</text><text x="580" y="555.1">宗</text><text x="600" y="555.1">教</text><text x="620" y="555.1">原</text><text x="640" y="555.1">因</text><text x="660" y="555.1">而</text><text x="680" y="555.1">在</text><text x="700" y="555.1">几</text><text x="720" y="555.1">个</text><text x="740" y="555.1">节</text><text x="760" y="555.1">日</text><text x="780" y="555.1">禁</text><text x="800" y="555.1">食</text><text x="820" y="555.1">，</text><text x="840" y="555.1">也</text><text x="860" y="555.1">可</text><text x="880" y="555.1">能</text><text x="900" y="555.1">是</text><text x="920" y="555.1">连</text><text x="940" y="555.1">续</text><text x="960" y="555.1">几</text><text x="980" y="555.1">天</text><text x="1000" y="555.1">只</text><text x="1020" y="555.1">喝</text><text x="1040" y="555.1">蔬</text><text x="1060" y="555.1">果</text><text x="1080" y="555.1">汁</text><text x="1100" y="555.1">，</text><text x="1120" y="555.1">号</text><text x="1140" y="555.1">称</text><text x="1160" y="555.1">有</text><text x="1180" y="555.1">某</text><text x="1200" y="555.1">种</text><text x="1220" y="555.1">神</text><text x="1240" y="555.1">奇</text><text x="1260" y="555.1">的</text><text x="1280" y="555.1">功</text><text x="1300" y="555.1">效</text><text x="1320" y="555.1">。</text><text x="1340" y="555.1">然</text><text x="1360" y="555.1">而</text><text x="1380" y="555.1">，</text><text x="1400" y="555.1">如</text><text x="40" y="585.1">果</text><text x="60" y="585.1">是</text><text x="80" y="585.1">连</text><text x="100" y="585.1">续</text><text x="120" y="585.1">多</text><text x="140" y="585.1">日</text><text x="160" y="585.1">粒</text><text x="180" y="585.1">米</text><text x="200" y="585.1">未</text><text x="220" y="585.1">进</text><text x="240" y="585.1">，</text><text x="260" y="585.1">而</text><text x="280" y="585.1">且</text><text x="300" y="585.1">连</text><text x="320" y="585.1">下</text><text x="340" y="585.1">一</text><text x="360" y="585.1">口</text><text x="380" y="585.1">食</text><text x="400" y="585.1">物</text><text x="420" y="585.1">在</text><text x="440" y="585.1">哪</text><text x="460" y="585.1">儿</text><text x="480" y="585.1">都</text><text x="500" y="585.1">不</text><text x="520" y="585.1">知</text><text x="540" y="585.1">道</text><text x="560" y="585.1">，</text><text x="580" y="585.1">又</text><text x="600" y="585.1">是</text><text x="620" y="585.1">什</text><text x="640" y="585.1">么</text><text x="660" y="585.1">感</text><text x="680" y="585.1">觉</text><text x="700" y="585.1">？</text><text x="720" y="585.1">今</text><text x="740" y="585.1">天</text><text x="760" y="585.1">，</text><text x="780" y="585.1">大</text><text x="800" y="585.1">多</text><text x="820" y="585.1">数</text><text x="840" y="585.1">人</text><text x="860" y="585.1">从</text><text x="880" y="585.1">未</text><text x="900" y="585.1">经</text><text x="920" y="585.1">历</text><text x="940" y="585.1">过</text><text x="960" y="585.1">这</text><text x="980" y="585.1">种</text><text x="1000" y="585.1">痛</text><text x="1020" y="585.1">苦</text><text x="1040" y="585.1">煎</text><text x="1060" y="585.1">熬</text><text x="1080" y="585.1">，</text><text x="1100" y="585.1">但</text><text x="1120" y="585.1">很</text><text x="1140" y="585.1">遗</text><text x="1160" y="585.1">憾</text><text x="1180" y="585.1">，</text><text x="1200" y="585.1">我</text><text x="1220" y="585.1">们</text><text x="1240" y="585.1">的</text><text x="1260" y="585.1">祖</text><text x="1280" y="585.1">先</text><text x="1300" y="585.1">对</text><text x="1320" y="585.1">此</text><text x="1340" y="585.1">再</text><text x="1360" y="585.1">清</text><text x="1380" y="585.1">楚</text><text x="1400" y="585.1">不</text><text x="40" y="615.1">过</text><text x="60" y="615.1">。</text><text x="80" y="615.1">在</text><text x="100" y="615.1">他</text><text x="120" y="615.1">们</text><text x="140" y="615.1">向</text><text x="160" y="615.1">神</text><text x="180" y="615.1">高</text><text x="200" y="615.1">呼</text><text x="220" y="615.1">“</text><text x="232.0625" y="615.1">拯</text><text x="252.0625" y="615.1">救</text><text x="272.0625" y="615.1">我</text><text x="292.0625" y="615.1">们</text><text x="312.0625" y="615.1">脱</text><text x="332.0625" y="615.1">离</text><text x="352.0625" y="615.1">饥</text><text x="372.0625" y="615.1">荒</text><text x="392.0625" y="615.1">！</text><text x="412.0625" y="615.1">”</text><text x="424.125" y="615.1">的</text><text x="444.125" y="615.1">时</text><text x="464.125" y="615.1">候</text><text x="484.125" y="615.1">，</text><text x="504.125" y="615.1">心</text><text x="524.125" y="615.1">里</text><text x="544.125" y="615.1">正</text><text x="564.125" y="615.1">是</text><text x="584.125" y="615.1">那</text><text x="604.125" y="615.1">种</text><text x="624.125" y="615.1">感</text><text x="644.125" y="615.1">觉</text><text x="664.125" y="615.1">。</text><text x="40" y="645.1">过</text><text x="60" y="645.1">去</text><text x="80" y="645.1">几</text><text x="100" y="645.1">百</text><text x="120" y="645.1">年</text><text x="140" y="645.1">间</text><text x="160" y="645.1">，</text><text x="180" y="645.1">科</text><text x="200" y="645.1">技</text><text x="220" y="645.1">、</text><text x="240" y="645.1">经</text><text x="260" y="645.1">济</text><text x="280" y="645.1">和</text><text x="300" y="645.1">政</text><text x="320" y="645.1">治</text><text x="340" y="645.1">的</text><text x="360" y="645.1">进</text><text x="380" y="645.1">步</text><text x="400" y="645.1">，</text><text x="420" y="645.1">打</text><text x="440" y="645.1">开</text><text x="460" y="645.1">了</text><text x="480" y="645.1">一</text><text x="500" y="645.1">张</text><text x="520" y="645.1">日</text><text x="540" y="645.1">益</text><text x="560" y="645.1">强</text><text x="580" y="645.1">大</text><text x="600" y="645.1">的</text><text x="620" y="645.1">安</text><text x="640" y="645.1">全</text><text x="660" y="645.1">网</text><text x="680" y="645.1">，</text><text x="700" y="645.1">使</text><text x="720" y="645.1">人</text><text x="740" y="645.1">类</text><text x="760" y="645.1">脱</text><text x="780" y="645.1">离</text><text x="800" y="645.1">生</text><text x="820" y="645.1">物</text><text x="840" y="645.1">贫</text><text x="860" y="645.1">穷</text><text x="880" y="645.1">线</text><text x="900" y="645.1">。</text><text x="920" y="645.1">虽</text><text x="940" y="645.1">然</text><text x="960" y="645.1">时</text><text x="980" y="645.1">不</text><text x="1000" y="645.1">时</text><text x="1020" y="645.1">仍</text><text x="1040" y="645.1">有</text><text x="1060" y="645.1">大</text><text x="1080" y="645.1">规</text><text x="1100" y="645.1">模</text><text x="1120" y="645.1">饥</text><text x="1140" y="645.1">荒</text><text x="1160" y="645.1">，</text><text x="1180" y="645.1">但</text><text x="1200" y="645.1">只</text><text x="1220" y="645.1">能</text><text x="1240" y="645.1">算</text><text x="1260" y="645.1">是</text><text x="1280" y="645.1">特</text><text x="1300" y="645.1">例</text><text x="1320" y="645.1">，</text><text x="1340" y="645.1">而</text><text x="1360" y="645.1">且</text><text x="1380" y="645.1">几</text><text x="1400" y="645.1">乎</text></svg>